<svg version="1.1" id="Layer_1" xmlns="http://www.w3.org/2000/svg" xmlns:xlink="http://www.w3.org/1999/xlink" x="0px" y="0px"
	 width="100%" viewBox="0 0 2537 512" enable-background="new 0 0 2537 512" xml:space="preserve">
<path fill="#000000" opacity="1.000000" stroke="none" 
	d="
M1869.000000,513.000000 
	C1246.000000,513.000000 623.500000,513.000000 1.000000,513.000000 
	C1.000000,342.333344 1.000000,171.666672 1.000000,1.000000 
	C846.666687,1.000000 1692.333374,1.000000 2538.000000,1.000000 
	C2538.000000,171.666672 2538.000000,342.333344 2538.000000,513.000000 
	C2315.166748,513.000000 2092.333252,513.000000 1869.000000,513.000000 
M465.998688,326.500000 
	C465.664978,301.713806 465.287109,276.928101 465.017792,252.141190 
	C464.898315,241.143021 465.259827,230.134552 464.926880,219.145172 
	C464.575836,207.558289 463.888733,195.969055 462.912994,184.417618 
	C462.127563,175.119476 454.836914,167.813995 445.856354,167.076874 
	C434.964050,166.182846 424.048492,165.387497 413.127747,165.065903 
	C394.013275,164.503021 374.887756,164.089096 355.765900,164.045837 
	C298.602295,163.916550 241.438156,163.957535 184.274429,164.053391 
	C178.198120,164.063568 172.123169,164.874390 166.047577,165.313797 
	C167.876526,164.099228 169.798599,163.895050 171.707474,163.604065 
	C186.074081,161.414093 200.434647,159.184235 214.803864,157.011566 
	C229.662903,154.764847 244.533371,152.593704 259.391724,150.342682 
	C273.111176,148.264206 286.819305,146.111221 300.535889,144.013763 
	C317.024109,141.492477 333.524017,139.046829 350.003906,136.472565 
	C365.507233,134.050842 381.006012,131.593536 396.479431,128.989105 
	C413.743378,126.083298 431.006378,123.153015 448.208374,119.907616 
	C455.261719,118.576897 460.294495,112.285446 459.886810,105.108009 
	C459.334503,95.384537 458.529022,85.613495 456.865997,76.030525 
	C454.720825,63.668922 452.033478,51.362568 448.790802,39.243484 
	C446.509644,30.717995 440.420105,26.635521 431.568542,27.091000 
	C417.687592,27.805275 403.799194,28.756252 389.983398,30.249460 
	C376.037201,31.756767 362.185577,34.121700 348.274292,35.974026 
	C332.226135,38.110870 316.135284,39.936169 300.104065,42.189182 
	C277.868958,45.314095 255.673141,48.718277 233.458618,51.990086 
	C212.705322,55.046684 191.929794,57.958908 171.200943,61.172703 
	C153.413086,63.930523 135.649490,66.867455 117.925774,70.010529 
	C96.291206,73.847145 74.671509,77.790405 53.120663,82.066895 
	C42.061287,84.261482 36.499165,91.032661 37.136829,102.128716 
	C37.980591,116.811050 39.265186,131.513275 41.361286,146.062744 
	C42.793533,156.004242 42.534161,166.794189 50.083561,173.962769 
	C48.587685,178.898514 46.477379,183.075027 46.170250,187.380203 
	C45.108433,202.264175 44.465977,217.187393 44.067486,232.106445 
	C43.745106,244.175888 43.945080,256.261230 44.015881,268.338928 
	C44.322384,320.625122 44.550980,372.912201 45.077377,425.196259 
	C45.210770,438.445587 45.762718,451.745972 47.163403,464.912140 
	C48.643700,478.826721 50.868919,484.055664 66.179008,486.792725 
	C72.673340,487.953766 79.300423,488.579620 85.894791,488.932312 
	C101.795883,489.782745 117.709633,490.438232 133.625137,490.965515 
	C148.242401,491.449738 162.869705,491.988220 177.490707,491.939331 
	C234.777252,491.747864 292.063446,491.387146 349.348877,490.969879 
	C367.138916,490.840271 384.937805,490.620697 402.710968,489.904358 
	C416.262512,489.358215 429.815826,488.296722 443.300995,486.840546 
	C454.247528,485.658447 461.097046,479.193329 461.923950,469.954529 
	C463.133606,456.439606 464.384644,442.908081 464.900635,429.356323 
	C465.615479,410.583435 465.767212,391.786285 465.965729,372.997467 
	C466.125946,357.833221 465.998444,342.665924 465.998688,326.500000 
M2144.493408,267.004456 
	C2152.120605,258.978027 2160.245117,251.611099 2171.142090,246.655853 
	C2172.504883,252.069565 2174.462646,256.965424 2174.861084,261.985077 
	C2175.930664,275.454529 2176.261963,288.980927 2177.024170,302.476898 
	C2177.570557,312.152313 2178.156494,321.832306 2179.057129,331.479218 
	C2180.194824,343.666718 2182.000977,355.798279 2182.901123,367.999542 
	C2183.704346,378.882355 2183.517334,389.834717 2184.062256,400.741608 
	C2184.339111,406.281677 2185.583008,411.940308 2190.166016,415.493134 
	C2196.292236,420.242310 2203.656494,420.587250 2210.517578,417.649445 
	C2217.490723,414.663788 2220.321045,408.238373 2219.921631,400.899933 
	C2219.199463,387.632721 2218.026611,374.389465 2216.992676,361.140045 
	C2216.368408,353.137115 2215.715332,345.135406 2214.961914,337.143860 
	C2213.688477,323.640656 2212.317139,310.146759 2211.004883,296.647217 
	C2210.640625,292.899536 2210.200439,289.151764 2210.041504,285.393616 
	C2209.834717,280.496765 2209.069580,275.387726 2214.325684,272.153107 
	C2226.243164,264.819275 2237.680664,256.542877 2250.149902,250.327713 
	C2258.176514,246.326889 2260.722412,248.480316 2264.305420,254.823654 
	C2266.421875,258.570496 2268.423828,262.440308 2269.939697,266.457672 
	C2275.505371,281.205109 2275.972412,296.893768 2277.961670,312.286987 
	C2279.487549,324.095215 2280.697266,335.944977 2281.989258,347.782593 
	C2283.689697,363.356750 2285.138184,378.961304 2287.066406,394.506683 
	C2288.425293,405.463379 2291.439209,414.191284 2307.234131,413.106781 
	C2316.077637,412.499481 2323.566895,406.106812 2322.869141,397.323944 
	C2321.681641,382.371765 2319.811768,367.467773 2317.977783,352.574463 
	C2315.791260,334.817169 2313.365723,317.089050 2310.997070,299.354523 
	C2308.695312,282.118042 2307.052979,264.751007 2303.767090,247.702209 
	C2301.260010,234.693878 2294.482422,223.748764 2282.189453,216.948486 
	C2273.154297,211.950317 2263.478271,212.823196 2253.899414,213.087891 
	C2244.430908,213.349518 2235.335693,215.896225 2227.468994,221.215439 
	C2220.711670,225.784790 2214.564941,231.257462 2208.155029,236.325470 
	C2207.217773,234.411789 2206.090088,231.747162 2204.663086,229.253998 
	C2194.871826,212.147049 2176.588623,207.464905 2160.511963,212.453094 
	C2149.577637,215.845779 2140.727295,223.719894 2132.898926,231.903564 
	C2125.504883,239.633316 2119.401855,248.598114 2112.635742,257.139771 
	C2113.091064,247.285904 2112.537842,236.932312 2114.324707,226.999756 
	C2116.040039,217.464508 2113.172363,210.699707 2106.351074,204.974304 
	C2100.755615,200.277847 2087.456299,199.631332 2082.913818,209.686691 
	C2077.714111,221.197083 2077.668701,233.359665 2077.098877,245.484131 
	C2076.884521,250.042801 2077.658691,254.649323 2078.003174,259.232452 
	C2078.384033,264.304596 2078.859863,269.370605 2079.168945,274.446930 
	C2079.818848,285.126526 2081.198975,295.841431 2080.801514,306.486664 
	C2080.171387,323.351746 2078.020996,340.155334 2077.132568,357.017517 
	C2076.700195,365.225922 2076.869385,373.644196 2078.246582,381.714966 
	C2079.406006,388.511810 2081.929688,395.370605 2085.260498,401.425568 
	C2089.151123,408.497345 2100.090332,408.336548 2105.656738,405.712982 
	C2113.586670,401.975494 2117.504395,392.754303 2115.815186,384.353577 
	C2114.440430,377.517670 2113.142334,370.509613 2113.170654,363.583466 
	C2113.218994,351.745453 2114.383545,339.914398 2114.980469,328.075439 
	C2115.404541,319.662354 2115.633789,311.239532 2116.031738,302.824921 
	C2116.097900,301.424316 2116.134277,299.661194 2116.943115,298.712311 
	C2125.873779,288.237274 2134.954346,277.890137 2144.493408,267.004456 
M686.043091,304.451813 
	C694.112000,315.923218 692.492004,333.855957 682.699585,345.533478 
	C667.097717,364.138733 645.450745,371.409912 622.197937,373.768250 
	C611.927673,374.809906 601.348755,373.864899 591.009583,372.827911 
	C583.075439,372.032166 575.421265,369.640106 568.420837,365.177917 
	C560.750122,360.288513 555.855164,353.194885 550.998718,345.929932 
	C545.579102,337.822479 537.463257,335.023682 528.449158,337.849060 
	C521.039551,340.171509 516.383606,346.735992 517.044189,355.399231 
	C517.983093,367.711731 523.478882,377.998657 533.107422,385.452179 
	C551.076050,399.361725 572.228210,406.083496 594.422241,407.676483 
	C614.624390,409.126556 634.937683,408.668549 654.830078,402.232941 
	C676.673645,395.166138 696.372742,385.208618 711.163086,367.262421 
	C728.566650,346.145386 732.493896,321.768768 724.407532,296.333099 
	C716.934204,272.825653 699.136108,258.394348 676.292114,249.987183 
	C660.359131,244.123459 643.576965,243.477524 626.947571,242.064178 
	C615.934509,241.128159 604.913513,240.022369 594.698425,235.760849 
	C585.130371,231.769226 579.278503,226.210510 580.045654,216.800705 
	C580.764038,207.990219 584.176208,200.188171 590.543884,194.004761 
	C611.940979,173.226746 638.073059,170.117325 665.941223,174.521469 
	C678.001953,176.427490 689.845947,179.628021 702.238159,179.053192 
	C710.505554,178.669693 716.677917,169.954819 714.501099,161.874451 
	C712.556641,154.656494 707.017029,151.043228 700.933228,149.220062 
	C688.649536,145.538971 676.138245,142.334412 663.509827,140.156921 
	C646.719299,137.261780 629.930237,138.281631 613.619324,143.788361 
	C590.286743,151.665680 569.921875,164.148773 554.247253,183.375885 
	C543.641602,196.385193 538.267273,211.085815 540.879211,228.354675 
	C543.286926,244.274109 552.300537,254.694244 565.785522,262.440369 
	C581.296753,271.350311 598.343933,274.067169 615.643982,274.799622 
	C631.247375,275.460205 646.228271,278.018738 660.572998,284.043884 
	C670.740295,288.314453 679.813599,294.164398 686.043091,304.451813 
M1357.032471,400.544403 
	C1358.486938,400.734924 1359.979370,400.777618 1361.390137,401.138824 
	C1376.079346,404.899841 1390.940186,404.989685 1405.833496,402.964417 
	C1424.074707,400.483917 1438.303345,390.649658 1449.505249,376.769562 
	C1463.319580,359.652618 1468.254395,339.106537 1468.845581,317.571136 
	C1469.101196,308.265839 1467.699097,298.911713 1466.993652,289.584015 
	C1465.837158,274.293976 1461.828979,259.785461 1454.644897,246.229431 
	C1447.453003,232.658478 1436.895752,222.253799 1422.028687,218.249893 
	C1403.971436,213.386795 1385.859253,214.896774 1368.741455,223.076660 
	C1361.139038,226.709457 1353.802002,230.897278 1345.999390,235.015320 
	C1346.568848,231.430054 1346.880737,228.068237 1347.663208,224.819809 
	C1349.499146,217.199234 1345.461304,207.810455 1337.876709,205.117859 
	C1329.675537,202.206360 1322.049316,203.305237 1317.036255,210.878983 
	C1313.036255,216.922455 1310.695557,223.641205 1311.060059,230.911316 
	C1311.866943,247.002548 1313.134277,263.070496 1313.960693,279.160980 
	C1314.799072,295.482056 1315.803101,311.815735 1315.908569,328.149200 
	C1316.181641,370.458862 1316.056152,412.771515 1315.954590,455.082672 
	C1315.933228,463.997986 1315.111572,472.911865 1315.111450,481.826416 
	C1315.111328,485.287354 1315.687134,489.079315 1317.182495,492.143829 
	C1320.871826,499.704712 1329.895996,503.056946 1339.004272,500.958313 
	C1345.615723,499.435028 1350.995361,491.549835 1350.997559,483.329865 
	C1351.004395,457.010193 1351.000000,430.690491 1351.000000,404.370819 
	C1351.000000,402.628082 1351.000000,400.885345 1351.000000,399.136475 
	C1353.165649,399.504242 1354.743774,399.772217 1357.032471,400.544403 
M1116.002075,349.265778 
	C1116.668335,351.915314 1117.288696,354.577454 1118.008789,357.212311 
	C1122.381958,373.214569 1129.922241,387.187866 1144.155762,396.571686 
	C1153.443848,402.695129 1163.822876,405.700653 1174.876221,407.129822 
	C1189.214722,408.983795 1203.191162,408.694885 1216.600708,402.751190 
	C1225.648315,398.740906 1234.576538,394.461212 1242.916504,390.599213 
	C1248.863037,396.140442 1254.870361,401.471588 1260.555664,407.126434 
	C1264.591187,411.140137 1269.411743,410.699951 1273.870972,409.422363 
	C1279.300659,407.866699 1282.488525,403.629120 1284.074707,398.009094 
	C1285.865112,391.665680 1282.071777,386.872375 1279.851562,381.870148 
	C1270.472534,360.737823 1264.236206,339.001984 1264.994507,315.636536 
	C1265.359497,304.386932 1265.611816,293.133392 1266.023560,281.885620 
	C1266.222046,276.463074 1266.190308,270.963501 1267.140869,265.656067 
	C1268.114380,260.220520 1270.375488,255.027679 1271.647949,249.628403 
	C1272.273926,246.971497 1272.306396,244.042755 1271.967773,241.316452 
	C1271.112549,234.430222 1266.281616,230.359085 1260.817139,227.006149 
	C1246.511841,218.228592 1231.177856,213.183258 1214.156738,212.872238 
	C1198.363159,212.583679 1183.544800,215.599976 1169.585449,222.877396 
	C1154.037476,230.982971 1141.603638,242.739807 1131.677734,256.964783 
	C1119.813843,273.967407 1113.453003,292.970276 1114.059692,313.893463 
	C1114.393188,325.397614 1115.333374,336.884125 1116.002075,349.265778 
M1523.955566,467.397369 
	C1523.303955,469.542633 1522.228394,471.660126 1522.085693,473.838745 
	C1521.749756,478.962067 1520.663208,484.467163 1522.051758,489.177704 
	C1524.518555,497.545715 1531.091797,500.262421 1542.093872,500.085724 
	C1547.816772,499.993835 1554.031128,493.384369 1556.053833,487.479828 
	C1561.709473,470.970825 1567.072510,454.328705 1573.576294,438.151337 
	C1581.760498,417.794769 1590.719727,397.737366 1599.782471,377.749481 
	C1612.301025,350.139771 1625.219360,322.711273 1637.984253,295.213409 
	C1645.415527,279.204865 1653.082397,263.301239 1660.216064,247.161530 
	C1662.512207,241.966599 1664.262939,236.249283 1664.816406,230.628510 
	C1665.746460,221.181015 1659.284302,216.952942 1652.418335,214.269547 
	C1645.318359,211.494614 1637.114258,214.772522 1633.013184,221.134293 
	C1631.451660,223.556625 1630.021240,226.085556 1628.765015,228.679230 
	C1618.479736,249.913528 1607.985596,271.052612 1598.093506,292.469391 
	C1591.189575,307.416534 1585.133057,322.755096 1578.360962,338.713104 
	C1577.372803,336.241241 1576.787842,334.436523 1575.957397,332.752930 
	C1567.003906,314.601746 1558.526001,296.190979 1548.888794,278.409058 
	C1538.793335,259.781219 1527.564941,241.767899 1516.851318,223.474564 
	C1510.604004,212.807388 1499.380981,213.251465 1492.309937,216.995758 
	C1483.079102,221.883743 1480.079956,232.802017 1485.383911,242.758759 
	C1494.823364,260.479218 1504.810303,277.909332 1514.162231,295.674652 
	C1526.973267,320.011200 1539.406616,344.546570 1551.998535,368.998413 
	C1554.193115,373.259979 1556.371582,377.529846 1557.896362,380.505554 
	C1546.407104,409.673981 1535.203125,438.118195 1523.955566,467.397369 
M2440.340820,327.030487 
	C2446.819580,330.507202 2452.481934,335.051514 2455.319824,341.926666 
	C2460.174316,353.687225 2458.418945,360.855164 2448.790771,365.714996 
	C2441.817871,369.234528 2433.549316,371.015656 2425.690674,371.733093 
	C2416.716797,372.552338 2407.500732,371.844757 2398.493408,370.857819 
	C2389.194336,369.838959 2379.820068,367.877136 2373.108643,360.486115 
	C2367.704590,354.534454 2357.035889,354.844757 2351.979492,358.529419 
	C2344.261475,364.153503 2341.788330,374.007416 2345.421875,382.037872 
	C2350.592773,393.464935 2361.020508,397.821625 2371.519043,401.932465 
	C2388.237793,408.478912 2405.756348,409.526062 2423.540771,409.090851 
	C2439.736572,408.694489 2454.899170,405.001892 2468.948486,396.978027 
	C2478.053467,391.778107 2484.839844,384.521698 2489.119873,374.731750 
	C2494.201904,363.106812 2493.641602,351.229736 2492.004639,339.164398 
	C2489.885742,323.545410 2481.265869,311.666901 2469.402588,302.254944 
	C2457.266846,292.626587 2442.703125,287.749084 2427.829102,284.038940 
	C2417.689453,281.509705 2407.487793,279.199982 2397.247070,277.120605 
	C2393.600342,276.380096 2393.663818,274.735229 2394.525391,271.884705 
	C2397.355469,262.519714 2404.442139,256.678894 2412.650391,253.338531 
	C2428.483398,246.895325 2444.869873,241.812210 2461.651367,235.946899 
	C2462.238281,238.783463 2462.801025,240.607285 2462.971436,242.467041 
	C2464.293701,256.916290 2469.178467,261.660187 2481.793945,262.097107 
	C2494.538818,262.538544 2500.315674,250.238617 2498.599854,240.101700 
	C2496.951172,230.359268 2495.714111,220.543625 2493.891846,210.836029 
	C2493.294922,207.654861 2492.009033,204.258667 2490.039307,201.742996 
	C2483.721436,193.674484 2474.812012,194.859177 2466.600830,197.085541 
	C2454.095459,200.476044 2441.884033,204.955032 2429.560059,209.008606 
	C2414.497559,213.962906 2398.918457,217.536346 2384.980469,225.515259 
	C2377.690430,229.688522 2371.502686,235.112274 2366.994385,242.254974 
	C2358.853516,255.153336 2356.276367,269.178162 2359.024902,284.141174 
	C2360.850342,294.078644 2366.276855,301.586700 2375.072510,306.555603 
	C2386.153809,312.815796 2398.560303,314.962555 2410.683105,318.095459 
	C2420.425537,320.613159 2429.949951,323.973022 2440.340820,327.030487 
M1786.521973,159.987015 
	C1787.791748,158.980713 1789.058960,157.971252 1790.331421,156.968597 
	C1799.324097,149.883438 1810.159668,149.672226 1820.790894,149.072433 
	C1828.296509,148.649002 1836.111328,144.819870 1837.739380,139.683594 
	C1842.171265,125.701286 1834.662964,116.110321 1821.760742,115.212273 
	C1807.434204,114.215080 1792.940552,114.177872 1779.205566,119.980194 
	C1770.601685,123.614868 1762.366333,128.001877 1756.439819,135.244507 
	C1742.069946,152.805450 1737.849731,174.170792 1735.049194,195.894379 
	C1733.944946,204.460632 1733.392456,213.098022 1732.561035,222.000000 
	C1731.057251,222.000000 1729.585815,221.993469 1728.114380,222.001053 
	C1717.813110,222.054062 1707.479370,221.419815 1697.475830,224.966492 
	C1685.896240,229.071991 1683.965088,235.096085 1685.172607,245.561859 
	C1685.975586,252.520233 1690.891113,258.484711 1702.577515,258.067383 
	C1711.923706,257.733643 1721.291504,258.000000 1731.000000,258.000000 
	C1731.000000,259.071259 1731.000000,260.699860 1731.000000,262.328461 
	C1731.000000,293.815369 1731.078247,325.302551 1730.953979,356.788971 
	C1730.914917,366.704865 1730.608398,376.638306 1729.901367,386.526367 
	C1729.439941,392.977631 1728.230957,399.398926 1727.006592,405.766296 
	C1725.436157,413.932373 1731.198242,424.016571 1738.838989,425.927216 
	C1749.243042,428.528870 1759.041260,424.477356 1760.772217,415.222961 
	C1763.337646,401.506714 1765.010010,387.535156 1765.793457,373.600983 
	C1766.460327,361.742950 1765.304565,349.784882 1765.009155,337.869751 
	C1764.643555,323.124634 1764.179932,308.379333 1764.067017,293.631714 
	C1764.012695,286.552277 1764.641113,279.466095 1765.007690,272.385376 
	C1765.337158,266.017853 1765.731201,259.653687 1766.108521,253.085098 
	C1780.421509,252.378754 1794.391724,251.715500 1808.358643,250.985138 
	C1812.932373,250.745987 1817.513550,250.476990 1822.061401,249.959106 
	C1826.753174,249.424805 1833.666382,243.912277 1833.850220,239.906952 
	C1834.148315,233.418213 1835.457153,226.568298 1828.555664,221.813889 
	C1820.032227,215.941956 1810.376953,216.028137 1800.886108,216.183029 
	C1789.747192,216.364792 1778.626343,217.654938 1767.078857,218.494827 
	C1768.121216,209.928024 1768.835449,202.172058 1770.050415,194.495316 
	C1772.081055,181.664246 1776.622803,169.915527 1786.521973,159.987015 
M836.465332,374.056427 
	C821.164307,371.349487 808.942200,364.156830 801.504639,350.020203 
	C792.892151,333.650391 794.776367,316.921295 801.048584,300.644348 
	C805.463257,289.187836 810.928345,278.000641 817.137573,267.404053 
	C825.633911,252.904236 836.381775,241.472107 855.869446,243.825485 
	C867.520691,245.232498 878.149109,248.017899 886.280029,256.866211 
	C890.781128,261.764435 899.553345,261.828308 904.020447,260.010040 
	C909.595459,257.740845 912.011780,252.993469 912.917847,247.583115 
	C914.235413,239.715561 911.599792,233.027542 905.297607,228.050278 
	C894.454834,219.487030 881.660217,214.853348 868.448608,212.274368 
	C858.406067,210.314011 847.733948,209.391266 837.622437,210.519928 
	C824.643188,211.968719 813.821594,219.543472 804.830505,228.832153 
	C790.392517,243.748001 779.926636,261.421600 772.223633,280.587769 
	C764.283752,300.343323 760.608215,320.997711 764.145386,342.193817 
	C767.163269,360.278809 775.273254,375.748749 789.459961,388.204224 
	C809.489563,405.789520 833.035095,411.552063 858.439697,408.641205 
	C875.672485,406.666626 891.828796,399.594696 906.456543,389.844910 
	C915.310852,383.943237 918.671448,376.998260 915.864075,368.389404 
	C912.541809,358.201813 904.152405,354.212891 894.287720,358.374207 
	C888.523193,360.806000 882.875671,363.677155 877.553162,366.962524 
	C864.995789,374.713684 851.369812,376.103180 836.465332,374.056427 
M986.990295,403.119354 
	C987.660217,399.827820 988.896545,396.538940 988.911987,393.244354 
	C989.059204,361.755249 988.978882,330.265167 989.048401,298.775543 
	C989.052917,296.721863 989.307190,294.449768 990.196533,292.650665 
	C999.401367,274.029541 1012.131104,258.877594 1032.517212,252.004059 
	C1040.940796,249.163895 1049.682861,247.268158 1058.558716,244.867508 
	C1059.088379,255.767410 1059.701904,265.145630 1059.946777,274.533447 
	C1060.120850,281.206665 1061.691284,286.630981 1068.709351,289.250000 
	C1074.713623,291.490662 1084.278442,290.545044 1087.633667,285.464142 
	C1090.489990,281.138641 1091.914795,275.576843 1092.894897,270.359467 
	C1095.501587,256.480865 1094.230469,242.668152 1089.896606,229.298996 
	C1086.972290,220.277542 1080.860718,213.238388 1071.164185,212.207626 
	C1054.553589,210.441879 1038.404297,213.363892 1023.122803,220.398254 
	C1010.991272,225.982651 1000.412354,233.862930 990.340698,242.881912 
	C989.866211,239.056381 989.675964,235.508057 988.952148,232.072144 
	C986.935730,222.499527 983.704895,214.367950 970.279663,214.713531 
	C962.318726,214.918472 956.435547,221.732117 956.030823,228.749802 
	C955.565125,236.825409 955.060669,244.913986 955.045044,252.997849 
	C954.953491,300.315613 954.949646,347.633820 955.079956,394.951416 
	C955.092651,399.559875 956.359131,404.045746 960.484375,407.133423 
	C967.697571,412.532379 979.354553,411.120728 986.990295,403.119354 
M2019.670898,399.860107 
	C2024.491089,391.312317 2022.824707,381.689331 2023.787231,372.584869 
	C2025.001709,361.097717 2024.661133,349.446564 2025.001709,337.866455 
	C2025.327393,326.785675 2025.785645,315.707336 2025.975586,304.624329 
	C2026.388062,280.551331 2026.612549,256.475098 2027.030762,232.402206 
	C2027.168335,224.483414 2027.839478,216.573685 2027.967407,208.654984 
	C2028.385742,182.749527 2028.800781,156.842514 2028.928833,130.934677 
	C2028.975220,121.552162 2025.152344,116.104065 2017.756348,114.368698 
	C2014.590820,113.625946 2011.143311,114.022247 2007.823486,114.012505 
	C1999.243286,113.987320 1993.161743,120.055595 1992.993652,128.658737 
	C1992.682495,144.570755 1992.334717,160.482056 1991.999634,176.393600 
	C1991.668091,192.138641 1991.270874,207.882584 1991.014526,223.628845 
	C1990.625488,247.535706 1990.494995,271.447876 1989.942505,295.350586 
	C1989.580322,311.021820 1988.539185,326.676208 1988.037231,342.345673 
	C1987.538452,357.918823 1987.062012,373.502777 1987.144775,389.079010 
	C1987.174438,394.663574 1988.277100,400.598145 1993.841797,403.943817 
	C2001.049927,408.277557 2013.068726,406.473755 2019.670898,399.860107 
M1925.000000,264.689331 
	C1925.333374,254.943741 1925.829956,245.200302 1925.959229,235.452011 
	C1926.126343,222.863983 1920.087036,216.996170 1907.400513,216.999985 
	C1897.933105,217.002838 1891.284668,223.779343 1890.944092,233.152496 
	C1890.507935,245.157257 1889.611572,257.144562 1889.015869,269.144470 
	C1888.288208,283.802643 1887.187744,298.463715 1887.113403,313.127930 
	C1887.005005,334.529816 1887.635620,355.936218 1888.038208,377.339050 
	C1888.089844,380.075012 1888.496948,382.833923 1889.025146,385.526093 
	C1891.381592,397.535187 1898.969849,399.908112 1911.002563,398.963898 
	C1917.814331,398.429382 1924.097778,390.153229 1923.963257,381.837067 
	C1923.776123,370.257019 1922.912720,358.674835 1923.084351,347.104645 
	C1923.487549,319.948364 1924.333374,292.798676 1925.000000,264.689331 
M1930.017090,167.472046 
	C1936.209839,161.670135 1936.233276,154.289841 1934.387451,147.009933 
	C1931.995117,137.575058 1924.271973,132.886978 1912.628174,133.020767 
	C1897.068359,133.199524 1888.568359,149.337021 1895.100342,163.156433 
	C1901.301270,176.275452 1921.125366,177.915268 1930.017090,167.472046 
z"/>
<path fill="#1A1A1A" opacity="1.000000" stroke="none" 
	d="
M465.998596,327.000000 
	C465.998444,342.665924 466.125946,357.833221 465.965729,372.997467 
	C465.767212,391.786285 465.615479,410.583435 464.900635,429.356323 
	C464.384644,442.908081 463.133606,456.439606 461.923950,469.954529 
	C461.097046,479.193329 454.247528,485.658447 443.300995,486.840546 
	C429.815826,488.296722 416.262512,489.358215 402.710968,489.904358 
	C384.937805,490.620697 367.138916,490.840271 349.348877,490.969879 
	C292.063446,491.387146 234.777252,491.747864 177.490707,491.939331 
	C162.869705,491.988220 148.242401,491.449738 133.625137,490.965515 
	C117.709633,490.438232 101.795883,489.782745 85.894791,488.932312 
	C79.300423,488.579620 72.673340,487.953766 66.179008,486.792725 
	C50.868919,484.055664 48.643700,478.826721 47.163403,464.912140 
	C45.762718,451.745972 45.210770,438.445587 45.077377,425.196259 
	C44.550980,372.912201 44.322384,320.625122 44.015881,268.338928 
	C43.945080,256.261230 43.745106,244.175888 44.067486,232.106445 
	C44.465977,217.187393 45.108433,202.264175 46.170250,187.380203 
	C46.477379,183.075027 48.587685,178.898514 50.083561,173.962769 
	C42.534161,166.794189 42.793533,156.004242 41.361286,146.062744 
	C39.265186,131.513275 37.980591,116.811050 37.136829,102.128716 
	C36.499165,91.032661 42.061287,84.261482 53.120663,82.066895 
	C74.671509,77.790405 96.291206,73.847145 117.925774,70.010529 
	C135.649490,66.867455 153.413086,63.930523 171.200943,61.172703 
	C191.929794,57.958908 212.705322,55.046684 233.458618,51.990086 
	C255.673141,48.718277 277.868958,45.314095 300.104065,42.189182 
	C316.135284,39.936169 332.226135,38.110870 348.274292,35.974026 
	C362.185577,34.121700 376.037201,31.756767 389.983398,30.249460 
	C403.799194,28.756252 417.687592,27.805275 431.568542,27.091000 
	C440.420105,26.635521 446.509644,30.717995 448.790802,39.243484 
	C452.033478,51.362568 454.720825,63.668922 456.865997,76.030525 
	C458.529022,85.613495 459.334503,95.384537 459.886810,105.108009 
	C460.294495,112.285446 455.261719,118.576897 448.208374,119.907616 
	C431.006378,123.153015 413.743378,126.083298 396.479431,128.989105 
	C381.006012,131.593536 365.507233,134.050842 350.003906,136.472565 
	C333.524017,139.046829 317.024109,141.492477 300.535889,144.013763 
	C286.819305,146.111221 273.111176,148.264206 259.391724,150.342682 
	C244.533371,152.593704 229.662903,154.764847 214.803864,157.011566 
	C200.434647,159.184235 186.074081,161.414093 171.707474,163.604065 
	C169.798599,163.895050 167.876526,164.099228 166.047577,165.313797 
	C172.123169,164.874390 178.198120,164.063568 184.274429,164.053391 
	C241.438156,163.957535 298.602295,163.916550 355.765900,164.045837 
	C374.887756,164.089096 394.013275,164.503021 413.127747,165.065903 
	C424.048492,165.387497 434.964050,166.182846 445.856354,167.076874 
	C454.836914,167.813995 462.127563,175.119476 462.912994,184.417618 
	C463.888733,195.969055 464.575836,207.558289 464.926880,219.145172 
	C465.259827,230.134552 464.898315,241.143021 465.017792,252.141190 
	C465.287109,276.928101 465.664978,301.713806 465.998596,327.000000 
M60.108246,337.500000 
	C61.069683,378.791962 61.978458,420.085236 63.037563,461.374695 
	C63.246181,469.507782 64.268013,470.414185 72.347694,470.959503 
	C87.626724,471.990662 102.905151,473.296295 118.204712,473.703674 
	C152.673309,474.621552 187.155731,475.630981 221.630569,475.565979 
	C278.270691,475.459229 334.911987,474.705658 391.546722,473.832184 
	C407.172241,473.591217 422.776581,471.962921 438.390045,470.961914 
	C443.265442,470.649353 446.076447,469.017883 446.234619,463.157043 
	C446.746521,444.189545 448.473145,425.244659 448.658722,406.280518 
	C449.107056,360.459412 448.950409,314.632324 449.022614,268.807617 
	C449.024902,267.352478 448.862122,265.897064 448.807953,264.978821 
	C319.453186,264.978821 190.448090,264.978821 60.110432,264.978821 
	C60.110432,288.590729 60.110432,312.545380 60.108246,337.500000 
M160.898483,103.608841 
	C153.564880,97.865669 146.374908,91.921677 138.805328,86.508484 
	C136.687134,84.993713 133.309464,84.129356 130.749161,84.523445 
	C113.832245,87.127304 96.963982,90.062637 80.114914,93.085365 
	C71.698265,94.595306 63.355618,96.517708 54.029186,98.450485 
	C55.525719,99.796631 56.053551,100.365601 56.669991,100.812309 
	C79.965149,117.693153 103.240738,134.601486 126.635735,151.342941 
	C128.127014,152.410095 130.620255,152.696030 132.533371,152.451874 
	C143.085968,151.105209 153.606705,149.505112 164.131577,147.945969 
	C179.659515,145.645691 195.181702,143.306793 211.190796,140.911850 
	C194.254501,128.346313 177.865646,116.186928 160.898483,103.608841 
M203.948700,188.442596 
	C206.169235,186.075165 208.389786,183.707733 210.596481,181.342133 
	C210.342484,181.199234 210.087204,180.928970 209.834671,180.931519 
	C184.184875,181.190979 158.534637,181.431488 132.887238,181.846085 
	C131.313293,181.871521 129.441650,182.949585 128.247406,184.098190 
	C107.478691,204.073059 86.806656,224.148422 66.059029,244.145325 
	C64.901337,245.261154 63.271225,245.886841 61.860996,246.740662 
	C62.237358,247.238693 62.613716,247.736710 62.990074,248.234741 
	C65.460846,248.401184 67.930061,248.682816 70.402634,248.716141 
	C93.386902,249.025925 116.372902,249.228790 139.355194,249.641205 
	C142.829834,249.703568 145.127777,248.560165 147.529938,246.080643 
	C166.072296,226.941071 184.781448,207.963120 203.948700,188.442596 
M237.514557,249.876633 
	C257.498260,249.858246 277.483154,249.935684 297.464050,249.690063 
	C299.745850,249.662018 302.564941,248.380066 304.189850,246.742035 
	C323.301819,227.475479 342.244904,208.041260 361.196899,188.616470 
	C363.478699,186.277725 365.551147,183.734650 367.700897,181.308563 
	C367.588135,181.281403 367.160889,181.090179 366.732635,181.087967 
	C342.919922,180.965149 319.106964,180.796417 295.294769,180.872543 
	C293.489410,180.878296 291.320190,182.262558 289.943054,183.632309 
	C271.292419,202.182724 252.766876,220.858810 234.171051,239.464478 
	C230.825409,242.811890 227.302521,245.982147 223.181717,249.876633 
	C228.296371,249.876633 232.409988,249.876633 237.514557,249.876633 
M268.120087,63.718201 
	C250.432632,66.248039 232.745163,68.777885 214.216064,71.428108 
	C215.409180,72.534836 215.815887,72.989861 216.295868,73.346153 
	C240.479065,91.297592 264.646301,109.270874 288.916016,127.104645 
	C290.283813,128.109741 292.576813,128.505081 294.309631,128.261688 
	C308.640167,126.248886 322.945557,124.053467 337.247406,121.841286 
	C346.740540,120.372917 356.215424,118.786255 366.466705,117.128304 
	C364.756348,115.850601 363.725586,115.082848 362.697174,114.311996 
	C340.459259,97.643524 318.148895,81.070030 296.059937,64.206474 
	C292.621796,61.581676 289.549713,60.192013 285.253387,61.040833 
	C279.875153,62.103401 274.408417,62.718128 268.120087,63.718201 
M428.486877,248.872940 
	C434.760651,248.872940 441.034424,248.872940 447.817780,248.872940 
	C448.457367,227.466476 449.122284,207.378448 446.685364,187.330490 
	C446.544769,186.173508 445.521942,185.123764 444.909698,184.024124 
	C443.707703,184.730774 442.259460,185.205200 441.340942,186.179199 
	C429.004364,199.260986 416.904419,212.569992 404.399475,225.487366 
	C396.950500,233.181992 388.893982,240.288452 381.110596,247.659348 
	C381.490143,248.065308 381.869690,248.471252 382.249207,248.877213 
	C397.329865,248.877213 412.410492,248.877213 428.486877,248.872940 
M385.708801,59.780231 
	C404.985229,73.997986 424.261688,88.215744 443.538116,102.433510 
	C443.924683,102.286774 444.311249,102.140038 444.697815,101.993301 
	C441.438782,84.379951 438.163574,66.769569 434.931793,49.151211 
	C434.089172,44.557568 431.971527,42.392513 426.803040,43.016842 
	C408.579559,45.218147 390.312286,47.057144 370.784058,49.171921 
	C376.295563,53.071278 380.720795,56.202084 385.708801,59.780231 
z"/>
<path fill="#FFFFFF" opacity="1.000000" stroke="none" 
	d="
M2144.244141,267.256470 
	C2134.954346,277.890137 2125.873779,288.237274 2116.943115,298.712311 
	C2116.134277,299.661194 2116.097900,301.424316 2116.031738,302.824921 
	C2115.633789,311.239532 2115.404541,319.662354 2114.980469,328.075439 
	C2114.383545,339.914398 2113.218994,351.745453 2113.170654,363.583466 
	C2113.142334,370.509613 2114.440430,377.517670 2115.815186,384.353577 
	C2117.504395,392.754303 2113.586670,401.975494 2105.656738,405.712982 
	C2100.090332,408.336548 2089.151123,408.497345 2085.260498,401.425568 
	C2081.929688,395.370605 2079.406006,388.511810 2078.246582,381.714966 
	C2076.869385,373.644196 2076.700195,365.225922 2077.132568,357.017517 
	C2078.020996,340.155334 2080.171387,323.351746 2080.801514,306.486664 
	C2081.198975,295.841431 2079.818848,285.126526 2079.168945,274.446930 
	C2078.859863,269.370605 2078.384033,264.304596 2078.003174,259.232452 
	C2077.658691,254.649323 2076.884521,250.042801 2077.098877,245.484131 
	C2077.668701,233.359665 2077.714111,221.197083 2082.913818,209.686691 
	C2087.456299,199.631332 2100.755615,200.277847 2106.351074,204.974304 
	C2113.172363,210.699707 2116.040039,217.464508 2114.324707,226.999756 
	C2112.537842,236.932312 2113.091064,247.285904 2112.635742,257.139771 
	C2119.401855,248.598114 2125.504883,239.633316 2132.898926,231.903564 
	C2140.727295,223.719894 2149.577637,215.845779 2160.511963,212.453094 
	C2176.588623,207.464905 2194.871826,212.147049 2204.663086,229.253998 
	C2206.090088,231.747162 2207.217773,234.411789 2208.155029,236.325470 
	C2214.564941,231.257462 2220.711670,225.784790 2227.468994,221.215439 
	C2235.335693,215.896225 2244.430908,213.349518 2253.899414,213.087891 
	C2263.478271,212.823196 2273.154297,211.950317 2282.189453,216.948486 
	C2294.482422,223.748764 2301.260010,234.693878 2303.767090,247.702209 
	C2307.052979,264.751007 2308.695312,282.118042 2310.997070,299.354523 
	C2313.365723,317.089050 2315.791260,334.817169 2317.977783,352.574463 
	C2319.811768,367.467773 2321.681641,382.371765 2322.869141,397.323944 
	C2323.566895,406.106812 2316.077637,412.499481 2307.234131,413.106781 
	C2291.439209,414.191284 2288.425293,405.463379 2287.066406,394.506683 
	C2285.138184,378.961304 2283.689697,363.356750 2281.989258,347.782593 
	C2280.697266,335.944977 2279.487549,324.095215 2277.961670,312.286987 
	C2275.972412,296.893768 2275.505371,281.205109 2269.939697,266.457672 
	C2268.423828,262.440308 2266.421875,258.570496 2264.305420,254.823654 
	C2260.722412,248.480316 2258.176514,246.326889 2250.149902,250.327713 
	C2237.680664,256.542877 2226.243164,264.819275 2214.325684,272.153107 
	C2209.069580,275.387726 2209.834717,280.496765 2210.041504,285.393616 
	C2210.200439,289.151764 2210.640625,292.899536 2211.004883,296.647217 
	C2212.317139,310.146759 2213.688477,323.640656 2214.961914,337.143860 
	C2215.715332,345.135406 2216.368408,353.137115 2216.992676,361.140045 
	C2218.026611,374.389465 2219.199463,387.632721 2219.921631,400.899933 
	C2220.321045,408.238373 2217.490723,414.663788 2210.517578,417.649445 
	C2203.656494,420.587250 2196.292236,420.242310 2190.166016,415.493134 
	C2185.583008,411.940308 2184.339111,406.281677 2184.062256,400.741608 
	C2183.517334,389.834717 2183.704346,378.882355 2182.901123,367.999542 
	C2182.000977,355.798279 2180.194824,343.666718 2179.057129,331.479218 
	C2178.156494,321.832306 2177.570557,312.152313 2177.024170,302.476898 
	C2176.261963,288.980927 2175.930664,275.454529 2174.861084,261.985077 
	C2174.462646,256.965424 2172.504883,252.069565 2171.142090,246.655853 
	C2160.245117,251.611099 2152.120605,258.978027 2144.244141,267.256470 
z"/>
<path fill="#FFFFFF" opacity="1.000000" stroke="none" 
	d="
M686.008545,304.073059 
	C679.813599,294.164398 670.740295,288.314453 660.572998,284.043884 
	C646.228271,278.018738 631.247375,275.460205 615.643982,274.799622 
	C598.343933,274.067169 581.296753,271.350311 565.785522,262.440369 
	C552.300537,254.694244 543.286926,244.274109 540.879211,228.354675 
	C538.267273,211.085815 543.641602,196.385193 554.247253,183.375885 
	C569.921875,164.148773 590.286743,151.665680 613.619324,143.788361 
	C629.930237,138.281631 646.719299,137.261780 663.509827,140.156921 
	C676.138245,142.334412 688.649536,145.538971 700.933228,149.220062 
	C707.017029,151.043228 712.556641,154.656494 714.501099,161.874451 
	C716.677917,169.954819 710.505554,178.669693 702.238159,179.053192 
	C689.845947,179.628021 678.001953,176.427490 665.941223,174.521469 
	C638.073059,170.117325 611.940979,173.226746 590.543884,194.004761 
	C584.176208,200.188171 580.764038,207.990219 580.045654,216.800705 
	C579.278503,226.210510 585.130371,231.769226 594.698425,235.760849 
	C604.913513,240.022369 615.934509,241.128159 626.947571,242.064178 
	C643.576965,243.477524 660.359131,244.123459 676.292114,249.987183 
	C699.136108,258.394348 716.934204,272.825653 724.407532,296.333099 
	C732.493896,321.768768 728.566650,346.145386 711.163086,367.262421 
	C696.372742,385.208618 676.673645,395.166138 654.830078,402.232941 
	C634.937683,408.668549 614.624390,409.126556 594.422241,407.676483 
	C572.228210,406.083496 551.076050,399.361725 533.107422,385.452179 
	C523.478882,377.998657 517.983093,367.711731 517.044189,355.399231 
	C516.383606,346.735992 521.039551,340.171509 528.449158,337.849060 
	C537.463257,335.023682 545.579102,337.822479 550.998718,345.929932 
	C555.855164,353.194885 560.750122,360.288513 568.420837,365.177917 
	C575.421265,369.640106 583.075439,372.032166 591.009583,372.827911 
	C601.348755,373.864899 611.927673,374.809906 622.197937,373.768250 
	C645.450745,371.409912 667.097717,364.138733 682.699585,345.533478 
	C692.492004,333.855957 694.112000,315.923218 686.008545,304.073059 
z"/>
<path fill="#FFFFFF" opacity="1.000000" stroke="none" 
	d="
M1356.677246,400.292297 
	C1354.743774,399.772217 1353.165649,399.504242 1351.000000,399.136475 
	C1351.000000,400.885345 1351.000000,402.628082 1351.000000,404.370819 
	C1351.000000,430.690491 1351.004395,457.010193 1350.997559,483.329865 
	C1350.995361,491.549835 1345.615723,499.435028 1339.004272,500.958313 
	C1329.895996,503.056946 1320.871826,499.704712 1317.182495,492.143829 
	C1315.687134,489.079315 1315.111328,485.287354 1315.111450,481.826416 
	C1315.111572,472.911865 1315.933228,463.997986 1315.954590,455.082672 
	C1316.056152,412.771515 1316.181641,370.458862 1315.908569,328.149200 
	C1315.803101,311.815735 1314.799072,295.482056 1313.960693,279.160980 
	C1313.134277,263.070496 1311.866943,247.002548 1311.060059,230.911316 
	C1310.695557,223.641205 1313.036255,216.922455 1317.036255,210.878983 
	C1322.049316,203.305237 1329.675537,202.206360 1337.876709,205.117859 
	C1345.461304,207.810455 1349.499146,217.199234 1347.663208,224.819809 
	C1346.880737,228.068237 1346.568848,231.430054 1345.999390,235.015320 
	C1353.802002,230.897278 1361.139038,226.709457 1368.741455,223.076660 
	C1385.859253,214.896774 1403.971436,213.386795 1422.028687,218.249893 
	C1436.895752,222.253799 1447.453003,232.658478 1454.644897,246.229431 
	C1461.828979,259.785461 1465.837158,274.293976 1466.993652,289.584015 
	C1467.699097,298.911713 1469.101196,308.265839 1468.845581,317.571136 
	C1468.254395,339.106537 1463.319580,359.652618 1449.505249,376.769562 
	C1438.303345,390.649658 1424.074707,400.483917 1405.833496,402.964417 
	C1390.940186,404.989685 1376.079346,404.899841 1361.390137,401.138824 
	C1359.979370,400.777618 1358.486938,400.734924 1356.677246,400.292297 
M1433.000000,306.603088 
	C1431.641602,296.639740 1431.095947,286.480713 1428.754272,276.754059 
	C1423.970093,256.882111 1409.829956,248.355850 1391.570068,252.026688 
	C1375.252686,255.307007 1362.949585,264.807465 1351.139282,275.460846 
	C1350.155518,276.348206 1349.091919,277.894348 1349.155518,279.075745 
	C1349.612183,287.559204 1350.662476,296.017487 1350.934570,304.502655 
	C1351.486816,321.725281 1351.783203,338.959015 1351.902954,356.190155 
	C1351.927368,359.700256 1353.293945,361.084625 1356.352417,362.035950 
	C1367.954468,365.644806 1379.729126,367.286469 1391.937378,367.120514 
	C1407.792847,366.904938 1418.546387,359.263000 1426.000854,345.950317 
	C1432.712036,333.964905 1433.353027,320.859711 1433.000000,306.603088 
z"/>
<path fill="#FFFFFF" opacity="1.000000" stroke="none" 
	d="
M1116.000977,348.822205 
	C1115.333374,336.884125 1114.393188,325.397614 1114.059692,313.893463 
	C1113.453003,292.970276 1119.813843,273.967407 1131.677734,256.964783 
	C1141.603638,242.739807 1154.037476,230.982971 1169.585449,222.877396 
	C1183.544800,215.599976 1198.363159,212.583679 1214.156738,212.872238 
	C1231.177856,213.183258 1246.511841,218.228592 1260.817139,227.006149 
	C1266.281616,230.359085 1271.112549,234.430222 1271.967773,241.316452 
	C1272.306396,244.042755 1272.273926,246.971497 1271.647949,249.628403 
	C1270.375488,255.027679 1268.114380,260.220520 1267.140869,265.656067 
	C1266.190308,270.963501 1266.222046,276.463074 1266.023560,281.885620 
	C1265.611816,293.133392 1265.359497,304.386932 1264.994507,315.636536 
	C1264.236206,339.001984 1270.472534,360.737823 1279.851562,381.870148 
	C1282.071777,386.872375 1285.865112,391.665680 1284.074707,398.009094 
	C1282.488525,403.629120 1279.300659,407.866699 1273.870972,409.422363 
	C1269.411743,410.699951 1264.591187,411.140137 1260.555664,407.126434 
	C1254.870361,401.471588 1248.863037,396.140442 1242.916504,390.599213 
	C1234.576538,394.461212 1225.648315,398.740906 1216.600708,402.751190 
	C1203.191162,408.694885 1189.214722,408.983795 1174.876221,407.129822 
	C1163.822876,405.700653 1153.443848,402.695129 1144.155762,396.571686 
	C1129.922241,387.187866 1122.381958,373.214569 1118.008789,357.212311 
	C1117.288696,354.577454 1116.668335,351.915314 1116.000977,348.822205 
M1231.997437,314.760101 
	C1231.331543,306.590118 1229.850586,298.386017 1230.190918,290.258148 
	C1230.701782,278.057281 1232.538086,265.914337 1233.657593,253.732681 
	C1233.766113,252.551178 1233.160645,250.641327 1232.276001,250.134003 
	C1223.642822,245.182632 1214.480103,243.835159 1204.593018,245.733582 
	C1190.119751,248.512604 1179.081177,256.343262 1169.318359,267.026611 
	C1155.726562,281.900116 1149.478027,299.494751 1149.190063,319.177673 
	C1149.064941,327.730408 1150.269775,336.484528 1152.192871,344.842957 
	C1155.142822,357.664581 1161.263672,369.034241 1174.589722,373.594696 
	C1180.731812,375.696686 1187.722900,375.692810 1194.353760,375.917480 
	C1210.521362,376.465149 1223.239990,368.802185 1234.390503,357.988983 
	C1235.378540,357.030823 1235.979736,355.069000 1235.849609,353.657288 
	C1234.682617,340.995636 1233.311279,328.352783 1231.997437,314.760101 
z"/>
<path fill="#FFFFFF" opacity="1.000000" stroke="none" 
	d="
M1523.977295,466.979889 
	C1535.203125,438.118195 1546.407104,409.673981 1557.896362,380.505554 
	C1556.371582,377.529846 1554.193115,373.259979 1551.998535,368.998413 
	C1539.406616,344.546570 1526.973267,320.011200 1514.162231,295.674652 
	C1504.810303,277.909332 1494.823364,260.479218 1485.383911,242.758759 
	C1480.079956,232.802017 1483.079102,221.883743 1492.309937,216.995758 
	C1499.380981,213.251465 1510.604004,212.807388 1516.851318,223.474564 
	C1527.564941,241.767899 1538.793335,259.781219 1548.888794,278.409058 
	C1558.526001,296.190979 1567.003906,314.601746 1575.957397,332.752930 
	C1576.787842,334.436523 1577.372803,336.241241 1578.360962,338.713104 
	C1585.133057,322.755096 1591.189575,307.416534 1598.093506,292.469391 
	C1607.985596,271.052612 1618.479736,249.913528 1628.765015,228.679230 
	C1630.021240,226.085556 1631.451660,223.556625 1633.013184,221.134293 
	C1637.114258,214.772522 1645.318359,211.494614 1652.418335,214.269547 
	C1659.284302,216.952942 1665.746460,221.181015 1664.816406,230.628510 
	C1664.262939,236.249283 1662.512207,241.966599 1660.216064,247.161530 
	C1653.082397,263.301239 1645.415527,279.204865 1637.984253,295.213409 
	C1625.219360,322.711273 1612.301025,350.139771 1599.782471,377.749481 
	C1590.719727,397.737366 1581.760498,417.794769 1573.576294,438.151337 
	C1567.072510,454.328705 1561.709473,470.970825 1556.053833,487.479828 
	C1554.031128,493.384369 1547.816772,499.993835 1542.093872,500.085724 
	C1531.091797,500.262421 1524.518555,497.545715 1522.051758,489.177704 
	C1520.663208,484.467163 1521.749756,478.962067 1522.085693,473.838745 
	C1522.228394,471.660126 1523.303955,469.542633 1523.977295,466.979889 
z"/>
<path fill="#FFFFFF" opacity="1.000000" stroke="none" 
	d="
M2439.956055,326.994873 
	C2429.949951,323.973022 2420.425537,320.613159 2410.683105,318.095459 
	C2398.560303,314.962555 2386.153809,312.815796 2375.072510,306.555603 
	C2366.276855,301.586700 2360.850342,294.078644 2359.024902,284.141174 
	C2356.276367,269.178162 2358.853516,255.153336 2366.994385,242.254974 
	C2371.502686,235.112274 2377.690430,229.688522 2384.980469,225.515259 
	C2398.918457,217.536346 2414.497559,213.962906 2429.560059,209.008606 
	C2441.884033,204.955032 2454.095459,200.476044 2466.600830,197.085541 
	C2474.812012,194.859177 2483.721436,193.674484 2490.039307,201.742996 
	C2492.009033,204.258667 2493.294922,207.654861 2493.891846,210.836029 
	C2495.714111,220.543625 2496.951172,230.359268 2498.599854,240.101700 
	C2500.315674,250.238617 2494.538818,262.538544 2481.793945,262.097107 
	C2469.178467,261.660187 2464.293701,256.916290 2462.971436,242.467041 
	C2462.801025,240.607285 2462.238281,238.783463 2461.651367,235.946899 
	C2444.869873,241.812210 2428.483398,246.895325 2412.650391,253.338531 
	C2404.442139,256.678894 2397.355469,262.519714 2394.525391,271.884705 
	C2393.663818,274.735229 2393.600342,276.380096 2397.247070,277.120605 
	C2407.487793,279.199982 2417.689453,281.509705 2427.829102,284.038940 
	C2442.703125,287.749084 2457.266846,292.626587 2469.402588,302.254944 
	C2481.265869,311.666901 2489.885742,323.545410 2492.004639,339.164398 
	C2493.641602,351.229736 2494.201904,363.106812 2489.119873,374.731750 
	C2484.839844,384.521698 2478.053467,391.778107 2468.948486,396.978027 
	C2454.899170,405.001892 2439.736572,408.694489 2423.540771,409.090851 
	C2405.756348,409.526062 2388.237793,408.478912 2371.519043,401.932465 
	C2361.020508,397.821625 2350.592773,393.464935 2345.421875,382.037872 
	C2341.788330,374.007416 2344.261475,364.153503 2351.979492,358.529419 
	C2357.035889,354.844757 2367.704590,354.534454 2373.108643,360.486115 
	C2379.820068,367.877136 2389.194336,369.838959 2398.493408,370.857819 
	C2407.500732,371.844757 2416.716797,372.552338 2425.690674,371.733093 
	C2433.549316,371.015656 2441.817871,369.234528 2448.790771,365.714996 
	C2458.418945,360.855164 2460.174316,353.687225 2455.319824,341.926666 
	C2452.481934,335.051514 2446.819580,330.507202 2439.956055,326.994873 
z"/>
<path fill="#FFFFFF" opacity="1.000000" stroke="none" 
	d="
M1786.264648,160.238037 
	C1776.622803,169.915527 1772.081055,181.664246 1770.050415,194.495316 
	C1768.835449,202.172058 1768.121216,209.928024 1767.078857,218.494827 
	C1778.626343,217.654938 1789.747192,216.364792 1800.886108,216.183029 
	C1810.376953,216.028137 1820.032227,215.941956 1828.555664,221.813889 
	C1835.457153,226.568298 1834.148315,233.418213 1833.850220,239.906952 
	C1833.666382,243.912277 1826.753174,249.424805 1822.061401,249.959106 
	C1817.513550,250.476990 1812.932373,250.745987 1808.358643,250.985138 
	C1794.391724,251.715500 1780.421509,252.378754 1766.108521,253.085098 
	C1765.731201,259.653687 1765.337158,266.017853 1765.007690,272.385376 
	C1764.641113,279.466095 1764.012695,286.552277 1764.067017,293.631714 
	C1764.179932,308.379333 1764.643555,323.124634 1765.009155,337.869751 
	C1765.304565,349.784882 1766.460327,361.742950 1765.793457,373.600983 
	C1765.010010,387.535156 1763.337646,401.506714 1760.772217,415.222961 
	C1759.041260,424.477356 1749.243042,428.528870 1738.838989,425.927216 
	C1731.198242,424.016571 1725.436157,413.932373 1727.006592,405.766296 
	C1728.230957,399.398926 1729.439941,392.977631 1729.901367,386.526367 
	C1730.608398,376.638306 1730.914917,366.704865 1730.953979,356.788971 
	C1731.078247,325.302551 1731.000000,293.815369 1731.000000,262.328461 
	C1731.000000,260.699860 1731.000000,259.071259 1731.000000,258.000000 
	C1721.291504,258.000000 1711.923706,257.733643 1702.577515,258.067383 
	C1690.891113,258.484711 1685.975586,252.520233 1685.172607,245.561859 
	C1683.965088,235.096085 1685.896240,229.071991 1697.475830,224.966492 
	C1707.479370,221.419815 1717.813110,222.054062 1728.114380,222.001053 
	C1729.585815,221.993469 1731.057251,222.000000 1732.561035,222.000000 
	C1733.392456,213.098022 1733.944946,204.460632 1735.049194,195.894379 
	C1737.849731,174.170792 1742.069946,152.805450 1756.439819,135.244507 
	C1762.366333,128.001877 1770.601685,123.614868 1779.205566,119.980194 
	C1792.940552,114.177872 1807.434204,114.215080 1821.760742,115.212273 
	C1834.662964,116.110321 1842.171265,125.701286 1837.739380,139.683594 
	C1836.111328,144.819870 1828.296509,148.649002 1820.790894,149.072433 
	C1810.159668,149.672226 1799.324097,149.883438 1790.331421,156.968597 
	C1789.058960,157.971252 1787.791748,158.980713 1786.264648,160.238037 
z"/>
<path fill="#FFFFFF" opacity="1.000000" stroke="none" 
	d="
M836.800781,374.358917 
	C851.369812,376.103180 864.995789,374.713684 877.553162,366.962524 
	C882.875671,363.677155 888.523193,360.806000 894.287720,358.374207 
	C904.152405,354.212891 912.541809,358.201813 915.864075,368.389404 
	C918.671448,376.998260 915.310852,383.943237 906.456543,389.844910 
	C891.828796,399.594696 875.672485,406.666626 858.439697,408.641205 
	C833.035095,411.552063 809.489563,405.789520 789.459961,388.204224 
	C775.273254,375.748749 767.163269,360.278809 764.145386,342.193817 
	C760.608215,320.997711 764.283752,300.343323 772.223633,280.587769 
	C779.926636,261.421600 790.392517,243.748001 804.830505,228.832153 
	C813.821594,219.543472 824.643188,211.968719 837.622437,210.519928 
	C847.733948,209.391266 858.406067,210.314011 868.448608,212.274368 
	C881.660217,214.853348 894.454834,219.487030 905.297607,228.050278 
	C911.599792,233.027542 914.235413,239.715561 912.917847,247.583115 
	C912.011780,252.993469 909.595459,257.740845 904.020447,260.010040 
	C899.553345,261.828308 890.781128,261.764435 886.280029,256.866211 
	C878.149109,248.017899 867.520691,245.232498 855.869446,243.825485 
	C836.381775,241.472107 825.633911,252.904236 817.137573,267.404053 
	C810.928345,278.000641 805.463257,289.187836 801.048584,300.644348 
	C794.776367,316.921295 792.892151,333.650391 801.504639,350.020203 
	C808.942200,364.156830 821.164307,371.349487 836.800781,374.358917 
z"/>
<path fill="#FFFFFF" opacity="1.000000" stroke="none" 
	d="
M986.839966,403.480682 
	C979.354553,411.120728 967.697571,412.532379 960.484375,407.133423 
	C956.359131,404.045746 955.092651,399.559875 955.079956,394.951416 
	C954.949646,347.633820 954.953491,300.315613 955.045044,252.997849 
	C955.060669,244.913986 955.565125,236.825409 956.030823,228.749802 
	C956.435547,221.732117 962.318726,214.918472 970.279663,214.713531 
	C983.704895,214.367950 986.935730,222.499527 988.952148,232.072144 
	C989.675964,235.508057 989.866211,239.056381 990.340698,242.881912 
	C1000.412354,233.862930 1010.991272,225.982651 1023.122803,220.398254 
	C1038.404297,213.363892 1054.553589,210.441879 1071.164185,212.207626 
	C1080.860718,213.238388 1086.972290,220.277542 1089.896606,229.298996 
	C1094.230469,242.668152 1095.501587,256.480865 1092.894897,270.359467 
	C1091.914795,275.576843 1090.489990,281.138641 1087.633667,285.464142 
	C1084.278442,290.545044 1074.713623,291.490662 1068.709351,289.250000 
	C1061.691284,286.630981 1060.120850,281.206665 1059.946777,274.533447 
	C1059.701904,265.145630 1059.088379,255.767410 1058.558716,244.867508 
	C1049.682861,247.268158 1040.940796,249.163895 1032.517212,252.004059 
	C1012.131104,258.877594 999.401367,274.029541 990.196533,292.650665 
	C989.307190,294.449768 989.052917,296.721863 989.048401,298.775543 
	C988.978882,330.265167 989.059204,361.755249 988.911987,393.244354 
	C988.896545,396.538940 987.660217,399.827820 986.839966,403.480682 
z"/>
<path fill="#FFFFFF" opacity="1.000000" stroke="none" 
	d="
M2019.379883,400.113281 
	C2013.068726,406.473755 2001.049927,408.277557 1993.841797,403.943817 
	C1988.277100,400.598145 1987.174438,394.663574 1987.144775,389.079010 
	C1987.062012,373.502777 1987.538452,357.918823 1988.037231,342.345673 
	C1988.539185,326.676208 1989.580322,311.021820 1989.942505,295.350586 
	C1990.494995,271.447876 1990.625488,247.535706 1991.014526,223.628845 
	C1991.270874,207.882584 1991.668091,192.138641 1991.999634,176.393600 
	C1992.334717,160.482056 1992.682495,144.570755 1992.993652,128.658737 
	C1993.161743,120.055595 1999.243286,113.987320 2007.823486,114.012505 
	C2011.143311,114.022247 2014.590820,113.625946 2017.756348,114.368698 
	C2025.152344,116.104065 2028.975220,121.552162 2028.928833,130.934677 
	C2028.800781,156.842514 2028.385742,182.749527 2027.967407,208.654984 
	C2027.839478,216.573685 2027.168335,224.483414 2027.030762,232.402206 
	C2026.612549,256.475098 2026.388062,280.551331 2025.975586,304.624329 
	C2025.785645,315.707336 2025.327393,326.785675 2025.001709,337.866455 
	C2024.661133,349.446564 2025.001709,361.097717 2023.787231,372.584869 
	C2022.824707,381.689331 2024.491089,391.312317 2019.379883,400.113281 
z"/>
<path fill="#FFFFFF" opacity="1.000000" stroke="none" 
	d="
M1925.000000,265.167816 
	C1924.333374,292.798676 1923.487549,319.948364 1923.084351,347.104645 
	C1922.912720,358.674835 1923.776123,370.257019 1923.963257,381.837067 
	C1924.097778,390.153229 1917.814331,398.429382 1911.002563,398.963898 
	C1898.969849,399.908112 1891.381592,397.535187 1889.025146,385.526093 
	C1888.496948,382.833923 1888.089844,380.075012 1888.038208,377.339050 
	C1887.635620,355.936218 1887.005005,334.529816 1887.113403,313.127930 
	C1887.187744,298.463715 1888.288208,283.802643 1889.015869,269.144470 
	C1889.611572,257.144562 1890.507935,245.157257 1890.944092,233.152496 
	C1891.284668,223.779343 1897.933105,217.002838 1907.400513,216.999985 
	C1920.087036,216.996170 1926.126343,222.863983 1925.959229,235.452011 
	C1925.829956,245.200302 1925.333374,254.943741 1925.000000,265.167816 
z"/>
<path fill="#FFFFFF" opacity="1.000000" stroke="none" 
	d="
M1929.759888,167.734833 
	C1921.125366,177.915268 1901.301270,176.275452 1895.100342,163.156433 
	C1888.568359,149.337021 1897.068359,133.199524 1912.628174,133.020767 
	C1924.271973,132.886978 1931.995117,137.575058 1934.387451,147.009933 
	C1936.233276,154.289841 1936.209839,161.670135 1929.759888,167.734833 
z"/>
<path fill="#E73A2A" opacity="1.000000" stroke="none" 
	d="
M60.109337,337.000000 
	C60.110432,312.545380 60.110432,288.590729 60.110432,264.978821 
	C190.448090,264.978821 319.453186,264.978821 448.807953,264.978821 
	C448.862122,265.897064 449.024902,267.352478 449.022614,268.807617 
	C448.950409,314.632324 449.107056,360.459412 448.658722,406.280518 
	C448.473145,425.244659 446.746521,444.189545 446.234619,463.157043 
	C446.076447,469.017883 443.265442,470.649353 438.390045,470.961914 
	C422.776581,471.962921 407.172241,473.591217 391.546722,473.832184 
	C334.911987,474.705658 278.270691,475.459229 221.630569,475.565979 
	C187.155731,475.630981 152.673309,474.621552 118.204712,473.703674 
	C102.905151,473.296295 87.626724,471.990662 72.347694,470.959503 
	C64.268013,470.414185 63.246181,469.507782 63.037563,461.374695 
	C61.978458,420.085236 61.069683,378.791962 60.109337,337.000000 
M389.999542,417.388885 
	C390.176666,414.398132 390.524475,411.406189 390.504364,408.416779 
	C390.321320,381.279480 390.500000,354.129211 389.648834,327.011749 
	C389.276672,315.156250 382.677277,307.288391 368.988251,307.738800 
	C366.007629,307.836914 363.010498,307.252838 360.018951,307.228516 
	C318.377686,306.889618 276.736389,306.512756 235.094299,306.326935 
	C218.606628,306.253326 202.115997,306.565948 185.628418,306.815247 
	C169.313370,307.061859 152.981979,307.087708 136.693802,307.917603 
	C127.471771,308.387451 122.396614,313.250580 121.027954,322.519257 
	C119.720207,331.375519 119.043922,340.407104 119.055313,349.360382 
	C119.086418,373.824860 119.356461,398.296661 120.073700,422.749664 
	C120.458328,435.862793 127.590981,442.318878 140.645004,442.973175 
	C145.633148,443.223145 150.616608,443.716003 155.605835,443.771545 
	C193.586319,444.194275 231.568832,444.907013 269.548462,444.791260 
	C302.686554,444.690247 335.824188,443.729736 368.956970,442.937347 
	C381.714691,442.632294 387.423004,437.223816 389.182983,424.759338 
	C389.485291,422.618622 389.703674,420.466064 389.999542,417.388885 
z"/>
<path fill="#FDFDFD" opacity="1.000000" stroke="none" 
	d="
M161.187637,103.818192 
	C177.865646,116.186928 194.254501,128.346313 211.190796,140.911850 
	C195.181702,143.306793 179.659515,145.645691 164.131577,147.945969 
	C153.606705,149.505112 143.085968,151.105209 132.533371,152.451874 
	C130.620255,152.696030 128.127014,152.410095 126.635735,151.342941 
	C103.240738,134.601486 79.965149,117.693153 56.669991,100.812309 
	C56.053551,100.365601 55.525719,99.796631 54.029186,98.450485 
	C63.355618,96.517708 71.698265,94.595306 80.114914,93.085365 
	C96.963982,90.062637 113.832245,87.127304 130.749161,84.523445 
	C133.309464,84.129356 136.687134,84.993713 138.805328,86.508484 
	C146.374908,91.921677 153.564880,97.865669 161.187637,103.818192 
z"/>
<path fill="#FDFDFD" opacity="1.000000" stroke="none" 
	d="
M203.693787,188.688828 
	C184.781448,207.963120 166.072296,226.941071 147.529938,246.080643 
	C145.127777,248.560165 142.829834,249.703568 139.355194,249.641205 
	C116.372902,249.228790 93.386902,249.025925 70.402634,248.716141 
	C67.930061,248.682816 65.460846,248.401184 62.990074,248.234741 
	C62.613716,247.736710 62.237358,247.238693 61.860996,246.740662 
	C63.271225,245.886841 64.901337,245.261154 66.059029,244.145325 
	C86.806656,224.148422 107.478691,204.073059 128.247406,184.098190 
	C129.441650,182.949585 131.313293,181.871521 132.887238,181.846085 
	C158.534637,181.431488 184.184875,181.190979 209.834671,180.931519 
	C210.087204,180.928970 210.342484,181.199234 210.603409,181.341217 
	C208.389786,183.707733 206.169235,186.075165 203.693787,188.688828 
z"/>
<path fill="#FDFDFD" opacity="1.000000" stroke="none" 
	d="
M237.019073,249.876633 
	C232.409988,249.876633 228.296371,249.876633 223.181717,249.876633 
	C227.302521,245.982147 230.825409,242.811890 234.171051,239.464478 
	C252.766876,220.858810 271.292419,202.182724 289.943054,183.632309 
	C291.320190,182.262558 293.489410,180.878296 295.294769,180.872543 
	C319.106964,180.796417 342.919922,180.965149 366.732635,181.087967 
	C367.160889,181.090179 367.588135,181.281403 367.700897,181.308563 
	C365.551147,183.734650 363.478699,186.277725 361.196899,188.616470 
	C342.244904,208.041260 323.301819,227.475479 304.189850,246.742035 
	C302.564941,248.380066 299.745850,249.662018 297.464050,249.690063 
	C277.483154,249.935684 257.498260,249.858246 237.019073,249.876633 
z"/>
<path fill="#FDFDFD" opacity="1.000000" stroke="none" 
	d="
M268.549988,63.622185 
	C274.408417,62.718128 279.875153,62.103401 285.253387,61.040833 
	C289.549713,60.192013 292.621796,61.581676 296.059937,64.206474 
	C318.148895,81.070030 340.459259,97.643524 362.697174,114.311996 
	C363.725586,115.082848 364.756348,115.850601 366.466705,117.128304 
	C356.215424,118.786255 346.740540,120.372917 337.247406,121.841286 
	C322.945557,124.053467 308.640167,126.248886 294.309631,128.261688 
	C292.576813,128.505081 290.283813,128.109741 288.916016,127.104645 
	C264.646301,109.270874 240.479065,91.297592 216.295868,73.346153 
	C215.815887,72.989861 215.409180,72.534836 214.216064,71.428108 
	C232.745163,68.777885 250.432632,66.248039 268.549988,63.622185 
z"/>
<path fill="#FDFDFD" opacity="1.000000" stroke="none" 
	d="
M427.989014,248.875076 
	C412.410492,248.877213 397.329865,248.877213 382.249207,248.877213 
	C381.869690,248.471252 381.490143,248.065308 381.110596,247.659348 
	C388.893982,240.288452 396.950500,233.181992 404.399475,225.487366 
	C416.904419,212.569992 429.004364,199.260986 441.340942,186.179199 
	C442.259460,185.205200 443.707703,184.730774 444.909698,184.024109 
	C445.521942,185.123764 446.544769,186.173508 446.685364,187.330490 
	C449.122284,207.378448 448.457367,227.466476 447.817780,248.872940 
	C441.034424,248.872940 434.760651,248.872940 427.989014,248.875076 
z"/>
<path fill="#FCFCFC" opacity="1.000000" stroke="none" 
	d="
M385.427399,59.556561 
	C380.720795,56.202084 376.295563,53.071278 370.784058,49.171921 
	C390.312286,47.057144 408.579559,45.218147 426.803040,43.016842 
	C431.971527,42.392513 434.089172,44.557568 434.931793,49.151211 
	C438.163574,66.769569 441.438782,84.379951 444.697815,101.993301 
	C444.311249,102.140038 443.924683,102.286774 443.538116,102.433510 
	C424.261688,88.215744 404.985229,73.997986 385.427399,59.556561 
z"/>
<path fill="#000000" opacity="1.000000" stroke="none" 
	d="
M1433.000000,307.091125 
	C1433.353027,320.859711 1432.712036,333.964905 1426.000854,345.950317 
	C1418.546387,359.263000 1407.792847,366.904938 1391.937378,367.120514 
	C1379.729126,367.286469 1367.954468,365.644806 1356.352417,362.035950 
	C1353.293945,361.084625 1351.927368,359.700256 1351.902954,356.190155 
	C1351.783203,338.959015 1351.486816,321.725281 1350.934570,304.502655 
	C1350.662476,296.017487 1349.612183,287.559204 1349.155518,279.075745 
	C1349.091919,277.894348 1350.155518,276.348206 1351.139282,275.460846 
	C1362.949585,264.807465 1375.252686,255.307007 1391.570068,252.026688 
	C1409.829956,248.355850 1423.970093,256.882111 1428.754272,276.754059 
	C1431.095947,286.480713 1431.641602,296.639740 1433.000000,307.091125 
z"/>
<path fill="#000000" opacity="1.000000" stroke="none" 
	d="
M1231.998779,315.232239 
	C1233.311279,328.352783 1234.682617,340.995636 1235.849609,353.657288 
	C1235.979736,355.069000 1235.378540,357.030823 1234.390503,357.988983 
	C1223.239990,368.802185 1210.521362,376.465149 1194.353760,375.917480 
	C1187.722900,375.692810 1180.731812,375.696686 1174.589722,373.594696 
	C1161.263672,369.034241 1155.142822,357.664581 1152.192871,344.842957 
	C1150.269775,336.484528 1149.064941,327.730408 1149.190063,319.177673 
	C1149.478027,299.494751 1155.726562,281.900116 1169.318359,267.026611 
	C1179.081177,256.343262 1190.119751,248.512604 1204.593018,245.733582 
	C1214.480103,243.835159 1223.642822,245.182632 1232.276001,250.134003 
	C1233.160645,250.641327 1233.766113,252.551178 1233.657593,253.732681 
	C1232.538086,265.914337 1230.701782,278.057281 1230.190918,290.258148 
	C1229.850586,298.386017 1231.331543,306.590118 1231.998779,315.232239 
z"/>
<path fill="#1D1B1B" opacity="1.000000" stroke="none" 
	d="
M389.980164,417.853943 
	C389.703674,420.466064 389.485291,422.618622 389.182983,424.759338 
	C387.423004,437.223816 381.714691,442.632294 368.956970,442.937347 
	C335.824188,443.729736 302.686554,444.690247 269.548462,444.791260 
	C231.568832,444.907013 193.586319,444.194275 155.605835,443.771545 
	C150.616608,443.716003 145.633148,443.223145 140.645004,442.973175 
	C127.590981,442.318878 120.458328,435.862793 120.073700,422.749664 
	C119.356461,398.296661 119.086418,373.824860 119.055313,349.360382 
	C119.043922,340.407104 119.720207,331.375519 121.027954,322.519257 
	C122.396614,313.250580 127.471771,308.387451 136.693802,307.917603 
	C152.981979,307.087708 169.313370,307.061859 185.628418,306.815247 
	C202.115997,306.565948 218.606628,306.253326 235.094299,306.326935 
	C276.736389,306.512756 318.377686,306.889618 360.018951,307.228516 
	C363.010498,307.252838 366.007629,307.836914 368.988251,307.738800 
	C382.677277,307.288391 389.276672,315.156250 389.648834,327.011749 
	C390.500000,354.129211 390.321320,381.279480 390.504364,408.416779 
	C390.524475,411.406189 390.176666,414.398132 389.980164,417.853943 
M374.709015,339.835754 
	C374.559540,338.177429 374.392181,336.520447 374.263458,334.860535 
	C373.234009,321.584686 374.512726,323.317139 361.633423,323.202789 
	C311.510681,322.757874 261.384979,322.540802 211.260132,322.483429 
	C188.282120,322.457123 165.303757,323.026764 142.324814,323.251587 
	C138.523331,323.288818 136.242294,324.205200 135.982483,328.705109 
	C134.205002,359.491821 133.901642,390.264313 135.883133,421.056183 
	C136.172195,425.548187 138.010971,427.002319 142.357361,427.062195 
	C156.008194,427.250092 169.655685,428.136078 183.302368,428.092438 
	C243.408463,427.900238 303.514282,427.538208 363.618927,427.075287 
	C373.452118,426.999573 373.731720,426.627991 373.901764,416.694489 
	C374.334808,391.391388 374.490692,366.083588 374.709015,339.835754 
z"/>
<path fill="#FDFDFD" opacity="1.000000" stroke="none" 
	d="
M374.733246,340.306702 
	C374.490692,366.083588 374.334808,391.391388 373.901764,416.694489 
	C373.731720,426.627991 373.452118,426.999573 363.618927,427.075287 
	C303.514282,427.538208 243.408463,427.900238 183.302368,428.092438 
	C169.655685,428.136078 156.008194,427.250092 142.357361,427.062195 
	C138.010971,427.002319 136.172195,425.548187 135.883133,421.056183 
	C133.901642,390.264313 134.205002,359.491821 135.982483,328.705109 
	C136.242294,324.205200 138.523331,323.288818 142.324814,323.251587 
	C165.303757,323.026764 188.282120,322.457123 211.260132,322.483429 
	C261.384979,322.540802 311.510681,322.757874 361.633423,323.202789 
	C374.512726,323.317139 373.234009,321.584686 374.263458,334.860535 
	C374.392181,336.520447 374.559540,338.177429 374.733246,340.306702 
M339.127441,355.685089 
	C338.268372,349.266388 333.382660,349.154755 328.620850,349.142700 
	C275.654419,349.008270 222.687851,348.907745 169.721283,348.835327 
	C163.218124,348.826447 160.011993,351.543365 159.909409,356.826721 
	C159.805298,362.188934 162.932678,365.017487 169.438553,365.022583 
	C222.897552,365.064545 276.356598,365.069427 329.815613,365.037659 
	C336.120667,365.033905 338.072113,363.111603 339.127441,355.685089 
M260.804108,397.975220 
	C265.648102,395.875610 267.836121,392.495056 267.052643,388.030914 
	C266.207184,383.213654 262.488403,382.413391 258.466675,382.149078 
	C257.636749,382.094543 256.802979,382.082855 255.970886,382.080292 
	C227.173111,381.991333 198.375366,381.880737 169.577515,381.839050 
	C163.125488,381.829712 159.944077,384.620605 159.909256,389.961792 
	C159.874222,395.334259 162.884521,398.028351 169.564026,398.039642 
	C199.685562,398.090546 229.807251,398.039093 260.804108,397.975220 
z"/>
<path fill="#1C1C1C" opacity="1.000000" stroke="none" 
	d="
M339.137817,356.096008 
	C338.072113,363.111603 336.120667,365.033905 329.815613,365.037659 
	C276.356598,365.069427 222.897552,365.064545 169.438553,365.022583 
	C162.932678,365.017487 159.805298,362.188934 159.909409,356.826721 
	C160.011993,351.543365 163.218124,348.826447 169.721283,348.835327 
	C222.687851,348.907745 275.654419,349.008270 328.620850,349.142700 
	C333.382660,349.154755 338.268372,349.266388 339.137817,356.096008 
z"/>
<path fill="#1C1C1C" opacity="1.000000" stroke="none" 
	d="
M260.366516,397.999878 
	C229.807251,398.039093 199.685562,398.090546 169.564026,398.039642 
	C162.884521,398.028351 159.874222,395.334259 159.909256,389.961792 
	C159.944077,384.620605 163.125488,381.829712 169.577515,381.839050 
	C198.375366,381.880737 227.173111,381.991333 255.970886,382.080292 
	C256.802979,382.082855 257.636749,382.094543 258.466675,382.149078 
	C262.488403,382.413391 266.207184,383.213654 267.052643,388.030914 
	C267.836121,392.495056 265.648102,395.875610 260.366516,397.999878 
z"/>
</svg>